<?xml version="1.0" encoding="utf-8"?><svg version="1.1" id="Layer_1" xmlns="http://www.w3.org/2000/svg" xmlns:xlink="http://www.w3.org/1999/xlink" x="0px" y="0px" width="122.883px" height="122.882px" viewBox="0 0 122.883 122.882" enable-background="new 0 0 122.883 122.882" xml:space="preserve"><g><path d="M122.883,61.441c0,16.966-6.877,32.326-17.996,43.445c-11.119,11.118-26.479,17.995-43.446,17.995 c-16.966,0-32.326-6.877-43.445-17.995C6.877,93.768,0,78.407,0,61.441c0-16.967,6.877-32.327,17.996-43.445 C29.115,6.877,44.475,0,61.441,0c16.967,0,32.327,6.877,43.446,17.996C116.006,29.115,122.883,44.475,122.883,61.441 L122.883,61.441z M80.717,71.377c1.783,1.735,4.637,1.695,6.373-0.088c1.734-1.784,1.695-4.637-0.09-6.372L64.48,43.078 l-3.142,3.23l3.146-3.244c-1.791-1.737-4.653-1.693-6.39,0.098c-0.05,0.052-0.099,0.104-0.146,0.158L35.866,64.917 c-1.784,1.735-1.823,4.588-0.088,6.372c1.735,1.783,4.588,1.823,6.372,0.088l19.202-18.779L80.717,71.377L80.717,71.377z M98.496,98.496c9.484-9.482,15.35-22.584,15.35-37.055c0-14.472-5.865-27.573-15.35-37.056 C89.014,14.903,75.912,9.038,61.441,9.038c-14.471,0-27.572,5.865-37.055,15.348C14.903,33.869,9.038,46.97,9.038,61.441 c0,14.471,5.865,27.572,15.349,37.055c9.482,9.483,22.584,15.349,37.055,15.349C75.912,113.845,89.014,107.979,98.496,98.496 L98.496,98.496z"/></g></svg>