<?xml version="1.0" encoding="utf-8"?><!-- Uploaded to: SVG Repo, www.svgrepo.com, Generator: SVG Repo Mixer Tools -->
<svg width="800px" height="800px" viewBox="0 0 24 24" fill="none" xmlns="http://www.w3.org/2000/svg">
<path d="M12 6C12.5523 6 13 6.44772 13 7V11H17C17.5523 11 18 11.4477 18 12C18 12.5523 17.5523 13 17 13H13V17C13 17.5523 12.5523 18 12 18C11.4477 18 11 17.5523 11 17V13H7C6.44772 13 6 12.5523 6 12C6 11.4477 6.44772 11 7 11H11V7C11 6.44772 11.4477 6 12 6Z" fill="#000000"/>
<path fill-rule="evenodd" clip-rule="evenodd" d="M1 12C1 5.92487 5.92487 1 12 1C18.0751 1 23 5.92487 23 12C23 18.0751 18.0751 23 12 23C5.92487 23 1 18.0751 1 12ZM12 3C7.02944 3 3 7.02944 3 12C3 16.9706 7.02944 21 12 21C16.9706 21 21 16.9706 21 12C21 7.02944 16.9706 3 12 3Z" fill="#000000"/>
</svg>